<svg xmlns="http://www.w3.org/2000/svg" viewBox="0 0 512 512" role="img" aria-label="WhatsApp icon">
  <circle cx="256" cy="256" r="248" fill="#25D366"/>
  <path fill="#fff" d="M381 132c-33-33-77-51-124-51-96 0-175 78-175 175 0 31 8 61 24 88l-25 91 94-24c26 14 55 22 84 22h1c96 0 175-78 175-175 0-46-18-90-51-126zM260 401h-1c-26 0-52-7-74-20l-5-3-56 14 15-54-3-6c-15-23-23-49-23-77 0-80 65-145 145-145 39 0 75 15 103 42 27 27 42 64 42 103 0 80-65 145-144 145zm79-109c-4-2-23-11-27-12-4-2-7-2-10 2-3 4-11 12-13 15-2 2-5 3-9 1-4-2-18-7-35-21-13-11-21-24-24-28-2-4 0-6 2-8 2-2 4-5 6-7 2-2 3-4 4-7 1-2 0-5-1-7-2-2-10-25-14-34-4-9-7-8-10-8h-8c-3 0-7 1-10 5-3 4-13 13-13 31 0 18 13 35 15 38 2 2 26 40 63 56 37 16 37 11 43 10 6-1 23-10 26-20 3-10 3-19 2-20-1-2-4-3-8-5z"/>
</svg>
